<svg xmlns="http://www.w3.org/2000/svg" width="30" height="24" fill="none" viewBox="0 0 30 24"><path fill="#4F4F4F" d="M4.5 10.5c1.655 0 3-1.345 3-3s-1.345-3-3-3-3 1.345-3 3 1.345 3 3 3Zm21 0c1.655 0 3-1.345 3-3s-1.345-3-3-3-3 1.345-3 3 1.345 3 3 3ZM27 12h-3c-.825 0-1.57.333-2.114.872A6.856 6.856 0 0 1 25.406 18H28.5c.83 0 1.5-.67 1.5-1.5V15c0-1.655-1.345-3-3-3Zm-12 0a5.247 5.247 0 0 0 5.25-5.25A5.247 5.247 0 0 0 15 1.5a5.247 5.247 0 0 0-5.25 5.25A5.247 5.247 0 0 0 15 12Zm3.6 1.5h-.39a7.383 7.383 0 0 1-3.21.75 7.399 7.399 0 0 1-3.21-.75h-.39A5.401 5.401 0 0 0 6 18.9v1.35a2.25 2.25 0 0 0 2.25 2.25h13.5A2.25 2.25 0 0 0 24 20.25V18.9c0-2.981-2.419-5.4-5.4-5.4Zm-10.486-.628A2.991 2.991 0 0 0 6 12H3c-1.655 0-3 1.345-3 3v1.5c0 .83.67 1.5 1.5 1.5h3.09a6.874 6.874 0 0 1 3.524-5.128Z"/></svg>