<svg xmlns="http://www.w3.org/2000/svg" width="24" height="24" fill="none" viewBox="0 0 24 24"><path fill="#4F4F4F" d="M9 9.75a1.5 1.5 0 0 0-1.5-1.5h-.75a3 3 0 0 0-3 3v2.25a3 3 0 0 0 3 3h.75A1.5 1.5 0 0 0 9 15V9.75Zm8.25 6.75a3 3 0 0 0 3-3v-2.25a3 3 0 0 0-3-3h-.75a1.5 1.5 0 0 0-1.5 1.5V15a1.5 1.5 0 0 0 1.5 1.5h.75ZM12 0C5.305 0 .215 5.57 0 12v.75c0 .414.336.75.75.75h.75a.75.75 0 0 0 .75-.75V12c0-5.376 4.374-9.75 9.75-9.75s9.75 4.374 9.75 9.75h-.006c.004.114.006 7.768.006 7.768a1.982 1.982 0 0 1-1.982 1.982H15a2.25 2.25 0 0 0-2.25-2.25h-1.5a2.25 2.25 0 1 0 0 4.5h8.518A4.232 4.232 0 0 0 24 19.768V12c-.215-6.43-5.305-12-12-12Z"/></svg>