<svg xmlns="http://www.w3.org/2000/svg" width="24" height="24" fill="none" viewBox="0 0 24 24"><path fill="#4F4F4F" d="M0 11.818V2.25A2.25 2.25 0 0 1 2.25 0h9.568c.597 0 1.17.237 1.591.659l9.932 9.932a2.25 2.25 0 0 1 0 3.182l-9.568 9.568a2.25 2.25 0 0 1-3.182 0L.659 13.409A2.25 2.25 0 0 1 0 11.818ZM5.25 3a2.25 2.25 0 1 0 0 4.5 2.25 2.25 0 0 0 0-4.5Z"/><g clip-path="url(#clip0)"><path fill="#4F4F4F" d="M10.2 12.075c.995 0 1.8-.822 1.8-1.837 0-1.016-.805-1.838-1.8-1.838-.994 0-1.8.822-1.8 1.838 0 1.015.806 1.837 1.8 1.837Zm0-2.625a.78.78 0 0 1 .772.788.78.78 0 0 1-.772.787.78.78 0 0 1-.771-.787.78.78 0 0 1 .771-.788Zm3.6 3.675c-.994 0-1.8.822-1.8 1.838 0 1.015.806 1.837 1.8 1.837.995 0 1.8-.822 1.8-1.838 0-1.015-.805-1.837-1.8-1.837Zm0 2.625a.78.78 0 0 1-.771-.787.78.78 0 0 1 .771-.788.78.78 0 0 1 .772.787.78.78 0 0 1-.772.788Zm.905-7.347.508-.001c.312-.002.497.357.317.62l-5.886 7.607a.388.388 0 0 1-.315.168l-.536.001c-.314 0-.497-.359-.317-.62l5.914-7.607a.383.383 0 0 1 .315-.168Z"/></g><defs><clipPath id="clip0"><path fill="#fff" d="M8.4 8.4h7.2v8.4H8.4z"/></clipPath></defs></svg>