<svg xmlns="http://www.w3.org/2000/svg" width="24" height="24" fill="none" viewBox="0 0 24 24"><g clip-path="url(#clip0)"><path fill="#4F4F4F" d="M23.488 18.548 18 13.06a3.48 3.48 0 0 0-4.003-.651L9 7.41V4.5L3 0 0 3l4.5 6H7.41l4.997 4.997c-.637 1.303-.431 2.92.652 4.003l5.489 5.49c.684.683 1.79.683 2.47 0l2.47-2.471c.68-.685.68-1.79 0-2.47Zm-7.94-8.001c1.326 0 2.573.515 3.51 1.453l.91.91a6.638 6.638 0 0 0 2.053-1.383 6.741 6.741 0 0 0 1.777-6.408.561.561 0 0 0-.942-.258l-3.488 3.487-3.183-.53-.53-3.182 3.488-3.488c.31-.309.16-.839-.267-.946a6.752 6.752 0 0 0-6.403 1.776c-1.336 1.336-1.964 3.099-1.931 4.856l3.848 3.849a5.11 5.11 0 0 1 1.158-.136Zm-4.87 3.844L8.02 11.733.876 18.88a2.999 2.999 0 1 0 4.242 4.242l5.794-5.793c-.356-.933-.464-1.95-.235-2.94Zm-7.679 7.734A1.128 1.128 0 0 1 1.874 21c0-.623.502-1.125 1.125-1.125a1.125 1.125 0 0 1 0 2.25Z"/></g><defs><clipPath id="clip0"><path fill="#fff" d="M0 0h24v24H0z"/></clipPath></defs></svg>